<?xml version="1.0" encoding="utf-8"?>
<!-- Generator: Adobe Illustrator 24.3.0, SVG Export Plug-In . SVG Version: 6.00 Build 0)  -->
<svg version="1.1" id="Layer_1" xmlns="http://www.w3.org/2000/svg" xmlns:xlink="http://www.w3.org/1999/xlink" x="0px" y="0px"
	 viewBox="0 0 41.3 29.8" style="enable-background:new 0 0 41.3 29.8;" xml:space="preserve">
<path style="fill:#00587C;" d="M27.6,29.8l-2.9-2.7l11.2-12L24.5,2.7l3-2.7l13.8,15.1L27.6,29.8z M26.5,17.9L26.5,17.9
	c1.4,0,2.5-1.1,2.5-2.5l0,0c0-1.4-1.1-2.5-2.5-2.5l0,0c-1.4,0-2.5,1.1-2.5,2.5S25.1,17.9,26.5,17.9z M18.5,17.9L18.5,17.9
	c1.4,0,2.5-1.1,2.5-2.5l0,0c0-1.4-1.1-2.5-2.5-2.5l0,0c-1.4,0-2.5,1.1-2.5,2.5S17.1,17.9,18.5,17.9z M10.5,17.9L10.5,17.9
	c1.4,0,2.5-1.1,2.5-2.5l0,0c0-1.4-1.1-2.5-2.5-2.5l0,0C9.1,12.9,8,14,8,15.4S9.1,17.9,10.5,17.9z M2.5,17.9L2.5,17.9
	c1.4,0,2.5-1.1,2.5-2.5l0,0c0-1.4-1.1-2.5-2.5-2.5l0,0C1.1,12.9,0,14,0,15.4S1.1,17.9,2.5,17.9z"/>
</svg>
