<?xml version="1.0" standalone="no"?>
<!DOCTYPE svg PUBLIC "-//W3C//DTD SVG 20010904//EN"
 "http://www.w3.org/TR/2001/REC-SVG-20010904/DTD/svg10.dtd">
<svg version="1.0" xmlns="http://www.w3.org/2000/svg"
 width="380.000000pt" height="380.000000pt" viewBox="0 0 380.000000 380.000000"
 preserveAspectRatio="xMidYMid meet">
<metadata>
Created by potrace 1.14, written by Peter Selinger 2001-2017
</metadata>
<g transform="translate(0.000000,380.000000) scale(0.100000,-0.100000)"
fill="#000000" stroke="none">
<path d="M10 2363 c0 -16 8 -24 28 -29 79 -18 101 -26 113 -40 11 -13 14 -90
13 -383 0 -201 -3 -377 -7 -392 -5 -20 -16 -27 -59 -38 -29 -7 -61 -15 -70
-18 -10 -2 -18 -14 -18 -26 l0 -22 270 0 270 0 0 22 c0 18 -7 23 -37 28 -21 3
-58 11 -83 18 -55 16 -55 19 -55 217 l0 144 105 1 c126 0 189 19 252 74 70 62
93 119 93 226 0 100 -11 129 -66 183 -54 52 -82 56 -431 57 l-318 0 0 -22z
m516 -72 c62 -28 88 -88 82 -191 -4 -67 -9 -84 -33 -115 -34 -46 -78 -65 -148
-65 l-53 0 1 183 c0 100 4 188 8 195 12 18 96 14 143 -7z"/>
<path d="M889 2388 c0 -2 -2 -13 -3 -25 -3 -23 3 -26 89 -38 71 -10 70 -6 69
-288 -3 -365 -6 -501 -15 -525 -8 -20 -23 -26 -111 -46 -22 -5 -28 -12 -28
-31 l0 -25 198 2 c193 3 197 3 198 24 1 19 -8 24 -64 38 -36 9 -67 18 -70 21
-13 13 -18 108 -20 380 -1 224 1 296 9 284 6 -8 85 -179 174 -380 156 -350
163 -364 191 -367 29 -3 30 -1 151 275 152 345 141 321 184 412 l37 76 -2
-332 c-1 -221 -6 -337 -13 -344 -6 -6 -40 -17 -75 -25 -59 -14 -65 -18 -65
-40 l0 -24 258 0 c250 0 259 1 259 19 0 24 -7 29 -56 37 -22 3 -51 12 -66 20
-33 17 -30 -25 -30 447 0 387 -2 379 79 393 26 4 53 8 58 8 6 1 11 13 13 29
l3 27 -187 -2 -186 -3 -57 -140 c-84 -207 -235 -535 -242 -527 -4 4 -26 50
-49 102 -24 52 -59 129 -78 170 -41 89 -80 182 -130 307 l-37 92 -192 1 c-106
0 -193 -1 -194 -2z"/>
<path d="M2255 2382 c-1 -2 -1 -12 2 -22 4 -13 18 -20 54 -25 27 -4 59 -15 72
-25 22 -18 22 -19 25 -382 2 -199 0 -378 -3 -396 -6 -32 -26 -47 -78 -57 -37
-8 -62 -18 -69 -28 -18 -29 6 -32 255 -31 236 0 252 1 255 18 5 24 -11 33 -70
41 -43 6 -76 24 -79 43 0 4 -2 82 -4 174 l-3 166 42 -5 c22 -2 42 -5 43 -7 1
-1 49 -98 107 -216 l105 -215 445 0 446 0 0 22 c0 18 -7 23 -37 28 -51 9 -90
24 -105 42 -9 11 -12 106 -13 371 0 196 1 372 4 390 5 47 43 68 134 71 11 1
17 9 17 24 l0 22 -259 0 -259 0 0 -22 c0 -16 6 -23 20 -23 45 0 109 -23 120
-44 14 -25 20 -722 6 -772 -7 -27 -15 -33 -55 -45 -94 -26 -203 -8 -251 41
-23 23 -139 207 -208 329 -19 33 -19 34 0 45 112 66 174 200 146 315 -16 69
-58 123 -117 152 -48 24 -51 24 -366 24 -175 0 -320 -1 -322 -3z m511 -92 c54
-27 78 -73 81 -159 3 -128 -56 -189 -182 -187 l-50 1 -3 177 -3 176 23 5 c53
10 94 6 134 -13z"/>
</g>
</svg>
